<mxfile host="app.diagrams.net" modified="2024-05-07T14:00:50.983Z" agent="Mozilla/5.0 (X11; Ubuntu; Linux x86_64; rv:125.0) Gecko/20100101 Firefox/125.0" etag="GmnvA8gxRng5qYLI6jxK" version="24.3.1" type="device">
  <diagram name="Page-1" id="pmpSa6uPhdf1qUuKNXph">
    <mxGraphModel dx="1647" dy="956" grid="1" gridSize="10" guides="1" tooltips="1" connect="1" arrows="1" fold="1" page="1" pageScale="1" pageWidth="1169" pageHeight="827" math="0" shadow="0">
      <root>
        <mxCell id="0" />
        <mxCell id="1" parent="0" />
        <mxCell id="fUcmUgfhtiMG-nf0lif0-28" style="edgeStyle=orthogonalEdgeStyle;rounded=0;orthogonalLoop=1;jettySize=auto;html=1;exitX=1;exitY=0.5;exitDx=0;exitDy=0;" parent="1" source="fUcmUgfhtiMG-nf0lif0-1" target="fUcmUgfhtiMG-nf0lif0-8" edge="1">
          <mxGeometry relative="1" as="geometry" />
        </mxCell>
        <mxCell id="fUcmUgfhtiMG-nf0lif0-1" value="" style="rounded=0;whiteSpace=wrap;html=1;" parent="1" vertex="1">
          <mxGeometry x="130" y="60" width="150" height="330" as="geometry" />
        </mxCell>
        <mxCell id="fUcmUgfhtiMG-nf0lif0-2" value="&lt;div&gt;&lt;br&gt;&lt;/div&gt;&lt;div&gt;Researchers;&lt;/div&gt;&lt;div&gt;Modellers;&lt;/div&gt;" style="shape=umlActor;verticalLabelPosition=bottom;verticalAlign=top;html=1;outlineConnect=0;" parent="1" vertex="1">
          <mxGeometry x="185" y="200" width="40" height="80" as="geometry" />
        </mxCell>
        <mxCell id="fUcmUgfhtiMG-nf0lif0-5" value="&lt;div&gt;Models &lt;br&gt;&lt;/div&gt;&lt;div&gt;+ algorithms&lt;/div&gt;" style="rounded=0;whiteSpace=wrap;html=1;strokeColor=#d6b656;fillColor=#fff2cc;gradientColor=#ffd966;" parent="1" vertex="1">
          <mxGeometry x="145" y="120" width="120" height="60" as="geometry" />
        </mxCell>
        <mxCell id="fUcmUgfhtiMG-nf0lif0-7" value="A typical simulation study in healthcare" style="text;strokeColor=none;align=center;fillColor=none;html=1;verticalAlign=middle;whiteSpace=wrap;rounded=0;fontStyle=1" parent="1" vertex="1">
          <mxGeometry x="130" y="70" width="150" height="30" as="geometry" />
        </mxCell>
        <mxCell id="fUcmUgfhtiMG-nf0lif0-29" style="edgeStyle=orthogonalEdgeStyle;rounded=0;orthogonalLoop=1;jettySize=auto;html=1;exitX=1;exitY=0.5;exitDx=0;exitDy=0;entryX=0;entryY=0.5;entryDx=0;entryDy=0;" parent="1" source="fUcmUgfhtiMG-nf0lif0-8" target="fUcmUgfhtiMG-nf0lif0-10" edge="1">
          <mxGeometry relative="1" as="geometry">
            <mxPoint x="550" y="250" as="targetPoint" />
          </mxGeometry>
        </mxCell>
        <mxCell id="fUcmUgfhtiMG-nf0lif0-8" value="Apply STARS framework components and learning materials" style="rounded=0;whiteSpace=wrap;html=1;fillColor=#d5e8d4;gradientColor=#97d077;strokeColor=#82b366;fontStyle=1" parent="1" vertex="1">
          <mxGeometry x="330" y="180" width="180" height="90" as="geometry" />
        </mxCell>
        <mxCell id="fUcmUgfhtiMG-nf0lif0-9" value="" style="verticalLabelPosition=bottom;verticalAlign=top;html=1;shape=mxgraph.basic.star;fillColor=#fff2cc;gradientColor=#ffd966;strokeColor=#d6b656;" parent="1" vertex="1">
          <mxGeometry x="474" y="230" width="36" height="30" as="geometry" />
        </mxCell>
        <mxCell id="fUcmUgfhtiMG-nf0lif0-30" style="edgeStyle=orthogonalEdgeStyle;rounded=0;orthogonalLoop=1;jettySize=auto;html=1;exitX=1;exitY=0.5;exitDx=0;exitDy=0;entryX=0;entryY=0.5;entryDx=0;entryDy=0;" parent="1" source="fUcmUgfhtiMG-nf0lif0-10" target="fUcmUgfhtiMG-nf0lif0-17" edge="1">
          <mxGeometry relative="1" as="geometry" />
        </mxCell>
        <mxCell id="fUcmUgfhtiMG-nf0lif0-10" value="" style="rounded=0;whiteSpace=wrap;html=1;" parent="1" vertex="1">
          <mxGeometry x="560" y="20" width="150" height="410" as="geometry" />
        </mxCell>
        <mxCell id="fUcmUgfhtiMG-nf0lif0-11" value="Journal articles" style="rounded=0;whiteSpace=wrap;html=1;fillColor=#fad7ac;strokeColor=#b46504;" parent="1" vertex="1">
          <mxGeometry x="575" y="70" width="120" height="60" as="geometry" />
        </mxCell>
        <mxCell id="fUcmUgfhtiMG-nf0lif0-12" value="Enhanced research artefacts" style="text;strokeColor=none;align=center;fillColor=none;html=1;verticalAlign=middle;whiteSpace=wrap;rounded=0;fontStyle=1" parent="1" vertex="1">
          <mxGeometry x="575" y="30" width="120" height="30" as="geometry" />
        </mxCell>
        <mxCell id="fUcmUgfhtiMG-nf0lif0-13" value="Documentation" style="rounded=0;whiteSpace=wrap;html=1;fillColor=#fad9d5;strokeColor=#ae4132;" parent="1" vertex="1">
          <mxGeometry x="575" y="210" width="120" height="60" as="geometry" />
        </mxCell>
        <mxCell id="fUcmUgfhtiMG-nf0lif0-14" value="&lt;div&gt;Models &lt;br&gt;&lt;/div&gt;&lt;div&gt;+ algorithms&lt;/div&gt;" style="rounded=0;whiteSpace=wrap;html=1;strokeColor=#d6b656;fillColor=#fff2cc;gradientColor=#ffd966;" parent="1" vertex="1">
          <mxGeometry x="575" y="140" width="120" height="60" as="geometry" />
        </mxCell>
        <mxCell id="fUcmUgfhtiMG-nf0lif0-15" value="Study repositories" style="rounded=0;whiteSpace=wrap;html=1;fillColor=#d0cee2;strokeColor=#56517e;" parent="1" vertex="1">
          <mxGeometry x="575" y="280" width="120" height="60" as="geometry" />
        </mxCell>
        <mxCell id="fUcmUgfhtiMG-nf0lif0-16" value="Researcher portfolio" style="rounded=0;whiteSpace=wrap;html=1;fillColor=#bac8d3;strokeColor=#23445d;" parent="1" vertex="1">
          <mxGeometry x="575" y="350" width="120" height="60" as="geometry" />
        </mxCell>
        <mxCell id="fUcmUgfhtiMG-nf0lif0-17" value="" style="rounded=0;whiteSpace=wrap;html=1;" parent="1" vertex="1">
          <mxGeometry x="770" y="60" width="170" height="330" as="geometry" />
        </mxCell>
        <mxCell id="fUcmUgfhtiMG-nf0lif0-18" value="Long-term beneficiaries" style="text;strokeColor=none;align=center;fillColor=none;html=1;verticalAlign=middle;whiteSpace=wrap;rounded=0;fontStyle=1" parent="1" vertex="1">
          <mxGeometry x="795" y="70" width="120" height="30" as="geometry" />
        </mxCell>
        <mxCell id="fUcmUgfhtiMG-nf0lif0-19" value="" style="shape=umlActor;verticalLabelPosition=bottom;verticalAlign=top;html=1;outlineConnect=0;" parent="1" vertex="1">
          <mxGeometry x="795" y="120" width="40" height="80" as="geometry" />
        </mxCell>
        <mxCell id="fUcmUgfhtiMG-nf0lif0-20" value="" style="shape=umlActor;verticalLabelPosition=bottom;verticalAlign=top;html=1;outlineConnect=0;" parent="1" vertex="1">
          <mxGeometry x="835" y="140" width="40" height="80" as="geometry" />
        </mxCell>
        <mxCell id="fUcmUgfhtiMG-nf0lif0-21" value="" style="shape=umlActor;verticalLabelPosition=bottom;verticalAlign=top;html=1;outlineConnect=0;" parent="1" vertex="1">
          <mxGeometry x="875" y="120" width="40" height="80" as="geometry" />
        </mxCell>
        <mxCell id="fUcmUgfhtiMG-nf0lif0-25" value="&lt;div&gt;Health services and patients;&lt;br&gt;&lt;/div&gt;&lt;div&gt;Simulation modellers;&lt;/div&gt;&lt;div&gt;Early career researchers;&lt;/div&gt;&lt;div&gt;Simulation students&lt;br&gt;&lt;/div&gt;" style="text;strokeColor=none;align=center;fillColor=none;html=1;verticalAlign=middle;whiteSpace=wrap;rounded=0;" parent="1" vertex="1">
          <mxGeometry x="773" y="300" width="164" height="30" as="geometry" />
        </mxCell>
        <mxCell id="fUcmUgfhtiMG-nf0lif0-27" value="" style="sketch=0;points=[[0,0,0],[0.25,0,0],[0.5,0,0],[0.75,0,0],[1,0,0],[0,1,0],[0.25,1,0],[0.5,1,0],[0.75,1,0],[1,1,0],[0,0.25,0],[0,0.5,0],[0,0.75,0],[1,0.25,0],[1,0.5,0],[1,0.75,0]];points=[[0,0,0],[0.25,0,0],[0.5,0,0],[0.75,0,0],[1,0,0],[0,1,0],[0.25,1,0],[0.5,1,0],[0.75,1,0],[1,1,0],[0,0.25,0],[0,0.5,0],[0,0.75,0],[1,0.25,0],[1,0.5,0],[1,0.75,0]];outlineConnect=0;fontColor=#232F3E;fillColor=#E7157B;strokeColor=#ffffff;dashed=0;verticalLabelPosition=bottom;verticalAlign=top;align=center;html=1;fontSize=12;fontStyle=0;aspect=fixed;shape=mxgraph.aws4.resourceIcon;resIcon=mxgraph.aws4.personal_health_dashboard;" parent="1" vertex="1">
          <mxGeometry x="831" y="230" width="48" height="48" as="geometry" />
        </mxCell>
      </root>
    </mxGraphModel>
  </diagram>
</mxfile>
